<?xml version="1.0" encoding="UTF-8"?><svg id="a" xmlns="http://www.w3.org/2000/svg" xmlns:xlink="http://www.w3.org/1999/xlink" viewBox="0 0 1920 1080"><defs><clipPath id="b"><rect y="0" width="1920" height="1080" style="fill:none; stroke-width:0px;"/></clipPath><linearGradient id="c" x1="1416.9" y1="4012.11" x2="516.79" y2="5467.35" gradientTransform="translate(0 5290.79) scale(1 -1)" gradientUnits="userSpaceOnUse"><stop offset=".07" stop-color="#00537f"/><stop offset=".39" stop-color="#0f396b"/><stop offset=".99" stop-color="#34003f"/></linearGradient><linearGradient id="d" x1="1634.38" y1="4580.23" x2="1703.97" y2="4580.23" gradientTransform="translate(0 4722.79) scale(1 -1)" gradientUnits="userSpaceOnUse"><stop offset="0" stop-color="#005c87"/><stop offset="1" stop-color="#245499"/></linearGradient><linearGradient id="e" x1="1479.51" y1="4556.66" x2="1558.2" y2="4556.66" xlink:href="#d"/><linearGradient id="f" x1="1519.98" y1="4636.89" x2="1580.89" y2="4636.89" xlink:href="#d"/><linearGradient id="g" x1="920.16" y1="4305.12" x2="911.37" y2="4058.99" xlink:href="#d"/><linearGradient id="h" x1="917.32" y1="4305.22" x2="908.53" y2="4059.1" xlink:href="#d"/><clipPath id="i"><path d="m4276.58,1001.16c-1127.03,204.55-1498.55,629.88-3000.22,717.48-840.88,48.91-1771.36,102.28-2558.21,404.21V-1140.39h5558.43V1001.16Z" style="fill:none; stroke-width:0px;"/></clipPath><linearGradient id="j" x1="146" y1="3701.09" x2="146" y2="2641.08" gradientTransform="translate(0 4722.79) scale(1 -1)" gradientUnits="userSpaceOnUse"><stop offset="0" stop-color="#006391"/><stop offset="1" stop-color="#1f3d78"/></linearGradient><clipPath id="k"><path d="m3823.81,794.91c-816.45,148.18-1085.6,456.3-2173.45,519.77-609.16,35.43-1283.23,74.09-1853.25,292.82V-756.5h4026.7V794.91Z" style="fill:none; stroke-width:0px;"/></clipPath><linearGradient id="l" x1="831.5" y1="3913" x2="831.5" y2="3145.09" xlink:href="#j"/><linearGradient id="m" x1="-96.62" y1="155.37" x2="-283.41" y2="548.65" gradientTransform="translate(489.09 147.88) rotate(8.05)" gradientUnits="userSpaceOnUse"><stop offset="0" stop-color="#006391"/><stop offset="1" stop-color="#9fcde0"/></linearGradient><linearGradient id="o" x1="1606.15" y1="3844.94" x2="1606.15" y2="3970.64" gradientTransform="translate(0 4722.79) scale(1 -1)" gradientUnits="userSpaceOnUse"><stop offset="0" stop-color="#fff"/><stop offset="1" stop-color="#fff" stop-opacity="0"/></linearGradient></defs><g style="clip-path:url(#b);"><rect y="-180" width="1920" height="1440" style="fill:url(#c); stroke-width:0px;"/><path d="m1921.51,619.45C1227.53,526.41,829.93-363.33-1.51,72.05" style="fill:none; opacity:.5; stroke:#006391; stroke-miterlimit:10;"/><path d="m1919.89,643.83C1145.84,589.57,886.93-32.5,218.02-180" style="fill:none; opacity:.65; stroke:#006391; stroke-dasharray:0 0 0 17; stroke-linecap:round; stroke-linejoin:round; stroke-width:3px;"/><path d="m1921.51,539.13l-4.54-.93" style="fill:none; stroke:#006391; stroke-miterlimit:10;"/><path d="m1868.28,534.39C1315.99,422.17,1122.22-64.68,807.69-180" style="fill:none; opacity:.65; stroke:#006391; stroke-dasharray:0 0 12.03 8.02; stroke-miterlimit:10;"/><path d="m847.31-178.45l-4.46-1.55m1078.66,769.88l-4.62-.1" style="fill:none; stroke:#006391; stroke-miterlimit:10;"/><path d="m1214.94,687.28c-634.44,26.61-431.56,703.79-1231.24,508.77" style="fill:none; opacity:.6; stroke:#006391; stroke-dasharray:0 0 12.04 8.03; stroke-miterlimit:10;"/><path d="m1908.66,566.26C1351.6,450.94,937.69-139.46,4.72,274.87" style="fill:none; opacity:.65; stroke:#006391; stroke-dasharray:0 0 0 16.96; stroke-linecap:round; stroke-linejoin:round; stroke-width:3px;"/><path d="m1576.32,511.75l-1.5,386.08v1.42l-36.55,36.63c-.25.25-.42.67-.42,1.08v36.55c-5.84.83-10.01,6.26-9.18,12.1.83,5.84,6.26,10.01,12.1,9.18,5.84-.83,10.01-6.26,9.18-12.1-.67-4.76-4.42-8.5-9.18-9.18v-35.96l34.04-34.04v27.2l-11.01,10.93c-.25.25-.42.67-.42,1v65.58c-5.92.83-10.01,6.26-9.18,12.1.83,5.92,6.26,10.01,12.1,9.18,5.84-.83,10.01-6.26,9.18-12.1-.67-4.76-4.42-8.5-9.18-9.18v-65l10.93-10.93c.25-.25.42-.67.42-1.08v-33.38l-1.34-386.08Zm-29.2,472.36c0,4.33-3.51,7.84-7.84,7.84s-7.84-3.51-7.84-7.84c0-4.33,3.5-7.84,7.83-7.84h.02c4.34.08,7.84,3.59,7.84,7.84Zm25.62,34.79c0,4.33-3.51,7.84-7.84,7.84s-7.84-3.51-7.84-7.84,3.51-7.84,7.84-7.84,7.84,3.51,7.84,7.84Zm28.12-471.77l-1.5,376.23-9.93,9.93c-.25.25-.42.67-.42,1.08v46.56c-5.92.83-10.01,6.26-9.18,12.18.83,5.92,6.26,10.01,12.18,9.18,5.92-.83,10.01-6.26,9.18-12.18-.67-4.76-4.42-8.59-9.18-9.18v-26.7l30.46,30.46v40.3c-5.92.83-10.01,6.26-9.18,12.1.83,5.92,6.26,10.01,12.1,9.18,5.92-.83,10.01-6.26,9.18-12.1-.67-4.76-4.42-8.5-9.18-9.18v-40.89c0-.42-.17-.75-.42-1l-32.96-32.96v-15.02l9.93-9.93c.25-.25.42-.67.42-1.08l-1.5-376.99Zm-2.59,444.41c0,4.33-3.51,7.84-7.84,7.84s-7.84-3.51-7.84-7.84c0-4.33,3.5-7.84,7.83-7.84h.02c4.34.08,7.84,3.59,7.84,7.84Zm25.53,51.82c-4.33,0-7.84-3.51-7.84-7.84s3.51-7.84,7.84-7.84c4.33,0,7.84,3.5,7.84,7.83v.02c-.08,4.34-3.59,7.84-7.84,7.84Zm2.59-599.77l-1.5,508.74c0,.42.17.75.42,1.08l31.62,31.62v11.6c-5.92.83-10.01,6.26-9.18,12.1.83,5.92,6.26,10.01,12.1,9.18,5.92-.83,10.01-6.26,9.18-12.1-.67-4.76-4.42-8.5-9.18-9.18v-12.18c0-.42-.17-.75-.42-1l-31.62-31.62v-33.04l34.71,34.71c-3.59,4.76-2.67,11.51,2.09,15.1,4.76,3.59,11.51,2.67,15.1-2.09,3.59-4.76,2.67-11.51-2.09-15.1-3.84-2.92-9.18-2.92-13.02,0l-36.8-36.8-1.42-471.02Zm39.8,563.56c0,4.33-3.51,7.84-7.84,7.84s-7.84-3.51-7.84-7.84,3.51-7.84,7.84-7.84,7.84,3.51,7.84,7.84Zm4.92-39.55c-4.33,0-7.84-3.51-7.84-7.84s3.51-7.84,7.84-7.84h0c4.33,0,7.84,3.51,7.84,7.84s-3.51,7.84-7.84,7.84q0,.08,0,0Z" style="fill:#c4dbe6; opacity:.15; stroke-width:0px;"/><path d="m1685.94,107.77h18.02v18.02c0,28.45-23.11,51.57-51.57,51.57h-18.02v-18.02c0-28.54,23.11-51.57,51.57-51.57Z" style="fill:url(#d); opacity:.5; stroke-width:0px;"/><path d="m1479.51,147.15v-20.36h20.36c32.21,0,58.33,26.12,58.33,58.33v20.36h-20.36c-32.21,0-58.33-26.12-58.33-58.33Z" style="fill:url(#e); opacity:.5; stroke-width:0px;"/><path d="m1519.98,71.22v-15.77h15.77c24.95,0,45.14,20.19,45.14,45.14v15.77h-15.77c-24.95,0-45.14-20.19-45.14-45.14Z" style="fill:url(#f); opacity:.5; stroke-width:0px;"/><path d="m1576.97,635.28l1.5-411.03c0-.42-.17-.75-.42-1.08l-56.99-57.07c-.57-.59-1.5-.6-2.09-.03-.59.57-.6,1.5-.03,2.09.01.01.02.02.03.03l56.57,56.57,1.42,410.53Zm24.53,35.38l1.5-533.69c0-.42-.17-.75-.42-1l-52.07-52.07c-.57-.59-1.5-.6-2.09-.03-.59.57-.6,1.5-.03,2.09.01.01.02.02.03.03l51.65,51.65,1.42,533.02Zm25.53-103.55l1.5-381.66,41.8-41.8c.59-.57.6-1.5.03-2.09-.57-.59-1.5-.6-2.09-.03-.01.01-.02.02-.03.03l-42.22,42.22c-.25.25-.42.67-.42,1l1.42,382.33Z" style="fill:#006391; opacity:.4; stroke-width:0px;"/><g style="opacity:.4;"><path d="m995.85,511.08h-162.49c-5.66,0-10.26,4.6-10.26,10.26v103.42c0,5.66,4.6,10.26,10.26,10.26h162.49c5.66,0,10.26-4.6,10.26-10.26v-103.42c-.07-5.66-4.6-10.26-10.26-10.26h0Zm-70.72,66.53v21.64c0,5.73-4.66,10.39-10.39,10.39s-10.39-4.66-10.39-10.39v-21.44c-10.39-5.66-14.18-18.65-8.52-29.04s18.65-14.18,29.04-8.52,14.18,18.65,8.52,29.04c-1.93,3.46-4.79,6.39-8.26,8.32Z" style="fill:url(#g); stroke-width:0px;"/><path d="m982.93,498.82h-13.39c-1.73,0-3.2-1.33-3.33-3.13-1.66-28.5-26.17-50.28-54.74-48.61-26.17,1.53-47.08,22.44-48.61,48.61-.13,1.73-1.6,3.13-3.33,3.13h-13.39c-1.86,0-3.33-1.47-3.33-3.33v-.13c1.93-39.62,35.63-70.12,75.25-68.19,36.89,1.8,66.4,31.3,68.19,68.19.07,1.86-1.33,3.4-3.2,3.46h-.13Z" style="fill:url(#h); stroke-width:0px;"/></g><path d="m1111.85,233.53h948.81c21.16,0,38.34,17.18,38.34,38.34v614.9c0,21.16-17.18,38.34-38.34,38.34h-948.81c-30.55,0-55.34-24.8-55.34-55.34V288.88c0-30.55,24.8-55.34,55.34-55.34Z" style="fill:#0070ba; isolation:isolate; opacity:.2; stroke-width:0px;"/><g style="opacity:.3;"><g style="clip-path:url(#i);"><g style="opacity:.3;"><path d="m-1281.85,2134.41H1573.85c-808.42,0-1063.22-1197.73-1641.07-1188.17-441.56,7.11-757.5,725.93-1214.63,1041.87v146.3Z" style="fill:url(#j); stroke-width:0px;"/></g></g></g><g style="opacity:.3;"><g style="clip-path:url(#k);"><g style="opacity:.3;"><path d="m-202.88,1615.87H1865.87c-585.64,0-770.23-867.67-1188.84-860.75-319.88,5.15-548.76,525.89-879.91,754.76v105.98Z" style="fill:url(#l); stroke-width:0px;"/></g></g></g><path d="m218.9,275.13c.17-.43-.09-.87-.52-.95-.35-.15-.76.02-.91.37-.02.05-.04.1-.04.15-.17.43.09.87.52.95.35.17.87-.09.95-.52Zm25.54,8.05c.26-.87-.17-1.73-1.04-1.99-.87-.26-1.73.17-1.99,1.04s.17,1.73,1.04,1.99c.78.26,1.65-.17,1.99-1.04Zm25.45,8.05c.35-1.3-.35-2.6-1.65-2.94-1.3-.35-2.6.35-2.94,1.65-.35,1.21.35,2.51,1.56,2.94,1.3.43,2.6-.26,3.03-1.65q0,.09,0,0Zm25.45,8.14c.52-1.65-.43-3.46-2.08-3.98-1.65-.52-3.46.43-3.98,2.08-.52,1.65.43,3.46,2.08,3.98,1.73.52,3.46-.43,3.98-2.08Zm25.54,8.05c.69-2.08-.52-4.33-2.6-5.02-2.08-.69-4.33.52-5.02,2.6-.69,2.08.52,4.33,2.6,5.02,2.16.61,4.33-.52,5.02-2.6Zm25.45,8.05c.78-2.51-.61-5.19-3.12-5.97-2.51-.78-5.19.61-5.97,3.12-.78,2.51.61,5.19,3.12,5.97,2.51.78,5.19-.61,5.97-3.12Zm25.54,8.05c.95-2.94-.69-6.06-3.64-7.01s-6.06.69-7.01,3.64c-.95,2.94.69,6.06,3.64,7.01s6.06-.69,7.01-3.64Zm25.45,8.05c1.04-3.38-.78-6.93-4.16-7.97s-6.93.78-7.97,4.16c-1.04,3.38.78,6.93,4.16,7.97s6.93-.78,7.97-4.16Zm25.54,8.05c1.21-3.72-.87-7.79-4.68-9-3.72-1.21-7.79.87-9,4.68-1.21,3.72.87,7.79,4.68,8.92,3.81,1.3,7.79-.87,9-4.59Zm25.45,8.05c1.3-4.16-1.04-8.66-5.19-9.96-4.16-1.3-8.66,1.04-9.96,5.19-1.3,4.16,1.04,8.66,5.19,9.96,4.16,1.39,8.66-.95,9.96-5.19q0,.09,0,0Zm25.45,8.14c1.47-4.59-1.13-9.52-5.71-10.91-4.59-1.47-9.52,1.13-10.91,5.71-1.47,4.59,1.13,9.52,5.71,10.91,4.59,1.39,9.52-1.13,10.91-5.71Zm25.54,8.05c1.56-5.02-1.21-10.39-6.23-11.95s-10.39,1.21-11.95,6.23c-1.56,5.02,1.21,10.39,6.23,11.95,5.02,1.56,10.39-1.21,11.95-6.23Zm-8.57,24.5c1.47-4.59-1.13-9.52-5.71-11-4.59-1.47-9.52,1.13-11,5.71-1.47,4.59,1.13,9.52,5.71,11,4.59,1.39,9.52-1.13,11-5.71Zm-8.57,24.5c1.3-4.16-1.04-8.66-5.19-9.96-4.16-1.3-8.66,1.04-9.96,5.19-1.3,4.16,1.04,8.66,5.19,9.96,4.16,1.3,8.57-1.04,9.96-5.19Zm-8.57,24.5c1.21-3.72-.87-7.79-4.68-9-3.72-1.21-7.79.87-9,4.68-1.21,3.72.87,7.79,4.68,8.92,3.72,1.21,7.79-.87,9-4.59Zm-8.66,24.42c1.04-3.38-.78-6.93-4.16-7.97-3.38-1.04-6.93.78-7.97,4.16s.78,6.93,4.16,7.97c3.38,1.13,6.93-.78,7.97-4.16Zm-8.57,24.5c.95-2.94-.69-6.06-3.64-7.01s-6.06.69-7.01,3.64c-.95,2.94.69,6.06,3.64,7.01h.09c2.94.95,6.06-.69,6.93-3.64h0Zm-8.57,24.5c.78-2.51-.61-5.19-3.12-5.97s-5.19.61-5.97,3.12c-.78,2.51.61,5.19,3.12,5.97s5.19-.61,5.97-3.12Zm-8.57,24.5c.69-2.08-.52-4.33-2.6-4.94-2.08-.61-4.33.52-4.94,2.6-.69,2.08.52,4.33,2.6,4.94,2.08.69,4.24-.52,4.94-2.6Zm-8.57,24.5c.52-1.65-.43-3.46-2.08-3.98s-3.46.43-3.98,2.08c-.52,1.65.43,3.46,2.08,3.98,1.65.52,3.46-.43,3.98-2.08Zm-8.57,24.5c.43-1.21-.35-2.6-1.56-2.94-1.21-.43-2.6.35-2.94,1.56-.43,1.21.35,2.6,1.56,2.94s2.51-.35,2.94-1.56Zm-8.57,24.5c.26-.87-.17-1.73-1.04-1.99s-1.73.17-1.99,1.04.17,1.73,1.04,1.99c.78.26,1.65-.26,1.99-1.04Zm-8.57,24.5c.17-.43-.09-.87-.52-1.04-.35-.15-.76.02-.91.37-.02.05-.04.1-.04.15-.17.43.09.87.52,1.04.35.09.78-.09.95-.52Zm-217.32-340.78c.09-.35-.09-.78-.43-.87s-.78.09-.87.43.09.78.43.87.69-.09.87-.43Zm25.28,7.97c.26-.78-.17-1.56-.87-1.82-.78-.26-1.56.17-1.82.87s.17,1.56.87,1.82h.09c.69.26,1.39-.09,1.73-.87Zm25.2,8.05c.35-1.13-.26-2.34-1.39-2.68-1.13-.35-2.34.26-2.68,1.39-.35,1.13.26,2.25,1.39,2.68,1.13.35,2.34-.26,2.68-1.39Zm25.28,7.97c.43-1.47-.35-3.03-1.82-3.55-1.47-.43-3.03.35-3.55,1.82-.43,1.47.35,3.03,1.82,3.55,1.56.52,3.12-.35,3.55-1.82Zm25.28,7.97c.61-1.82-.43-3.81-2.34-4.42-1.82-.61-3.81.43-4.42,2.34-.61,1.82.43,3.81,2.34,4.42s3.81-.43,4.42-2.34Zm25.28,8.05c.69-2.25-.52-4.59-2.77-5.28-2.25-.69-4.59.52-5.28,2.77-.69,2.25.52,4.59,2.77,5.28,2.16.69,4.59-.61,5.28-2.77Zm25.28,7.97c.87-2.6-.61-5.37-3.2-6.23s-5.37.61-6.23,3.2c-.87,2.6.61,5.37,3.2,6.23,2.68.87,5.45-.61,6.23-3.2Zm25.28,7.97c.95-2.94-.69-6.15-3.64-7.1-2.94-.95-6.15.69-7.1,3.64-.95,2.94.69,6.15,3.64,7.1,3.03,1.04,6.15-.61,7.1-3.64Zm25.28,8.05c1.04-3.38-.78-6.93-4.16-7.97s-6.93.78-7.97,4.16c-1.04,3.38.78,6.93,4.16,7.97,3.38,1.04,6.93-.78,7.97-4.16Zm25.28,7.97c1.21-3.72-.87-7.71-4.59-8.83-3.72-1.13-7.71.87-8.83,4.59-1.21,3.72.87,7.71,4.59,8.83,3.64,1.21,7.62-.87,8.83-4.59Zm25.28,7.97c1.3-4.07-.95-8.49-5.02-9.78s-8.48.95-9.78,5.02c-1.3,4.07.95,8.49,5.02,9.78h.09c3.98,1.39,8.31-.87,9.7-5.02h0Zm25.28,8.05c1.39-4.5-1.04-9.18-5.54-10.65-4.5-1.39-9.18,1.04-10.65,5.54-1.39,4.42,1.04,9.18,5.54,10.65,4.5,1.39,9.18-1.13,10.65-5.54Zm-8.48,24.33c1.3-4.07-.95-8.49-5.02-9.78-4.07-1.3-8.48.95-9.78,5.02s.95,8.49,5.02,9.78h.09c4.07,1.39,8.4-.87,9.7-5.02Zm-8.48,24.5c1.21-3.72-.87-7.71-4.59-8.83-3.72-1.21-7.71.87-8.83,4.59-1.21,3.72.87,7.71,4.59,8.83,3.72,1.13,7.71-.95,8.83-4.59Zm-8.4,24.33c1.04-3.38-.78-6.93-4.16-7.97-3.38-1.04-6.93.78-7.97,4.16-1.04,3.38.78,6.93,4.16,7.97,3.29,1.04,6.84-.78,7.97-4.16Zm-8.48,24.42c.95-2.94-.69-6.15-3.64-7.1-2.94-.95-6.15.69-7.1,3.64-.95,2.94.69,6.15,3.64,7.1,3.03.95,6.15-.69,7.1-3.64Zm-8.48,24.42c.87-2.6-.61-5.37-3.2-6.23-2.6-.87-5.37.61-6.23,3.2-.87,2.6.61,5.37,3.2,6.23,2.68.78,5.45-.61,6.23-3.2Zm-8.4,24.33c.69-2.25-.52-4.59-2.77-5.28s-4.59.52-5.28,2.77c-.69,2.25.52,4.59,2.77,5.28,2.16.69,4.5-.52,5.28-2.77Zm-8.48,24.42c.61-1.82-.43-3.81-2.34-4.42-1.82-.61-3.81.43-4.42,2.34-.61,1.9.43,3.81,2.34,4.42,1.82.52,3.81-.43,4.42-2.34Zm-8.48,24.42c.43-1.47-.35-3.03-1.82-3.55-1.47-.43-3.03.35-3.55,1.82-.43,1.47.35,3.03,1.82,3.55,1.56.52,3.12-.35,3.55-1.82Zm-8.4,24.42c.35-1.13-.26-2.34-1.39-2.68s-2.34.26-2.68,1.39.26,2.25,1.39,2.68c1.13.35,2.25-.35,2.68-1.39Zm-8.48,24.33c.26-.78-.17-1.56-.95-1.73-.78-.26-1.56.17-1.73.95-.26.78.17,1.56.95,1.73.69.26,1.47-.17,1.73-.95Zm-8.48,24.42c.09-.35-.09-.78-.43-.87s-.78.09-.87.43.09.78.43.87c.43.09.78-.09.87-.43Zm-216.28-338.88c.09-.35-.09-.69-.43-.78s-.69.09-.78.43.09.69.43.78c.26.09.61-.09.78-.43Zm25.02,7.97c.17-.69-.17-1.39-.78-1.56s-1.39.17-1.56.78.17,1.39.78,1.56c.69.17,1.39-.17,1.56-.78Zm25.11,7.88c.35-.95-.26-1.99-1.21-2.34-.95-.35-1.99.26-2.34,1.21s.26,1.99,1.21,2.34c.95.35,1.99-.26,2.34-1.21Zm25.02,7.97c.43-1.3-.35-2.68-1.65-3.12s-2.68.35-3.12,1.65.35,2.68,1.65,3.12c1.39.35,2.68-.35,3.12-1.65Zm25.11,7.97c.52-1.65-.35-3.38-1.99-3.9-1.65-.52-3.38.35-3.9,1.99s.35,3.38,1.99,3.9c1.65.43,3.29-.43,3.9-1.99Zm25.02,7.88c.61-1.99-.43-4.07-2.42-4.68s-4.07.43-4.68,2.42.43,4.07,2.42,4.68c1.99.61,4.07-.43,4.68-2.42Zm25.11,7.97c.69-2.25-.52-4.68-2.86-5.45-2.25-.69-4.68.52-5.45,2.86-.69,2.25.52,4.68,2.86,5.45,2.25.61,4.68-.61,5.45-2.86Zm25.02,7.88c.87-2.6-.61-5.37-3.2-6.23-2.6-.87-5.37.61-6.23,3.2-.87,2.6.61,5.37,3.2,6.23,2.68.87,5.37-.61,6.23-3.2Zm25.11,7.97c.95-2.94-.69-6.06-3.64-7.01-2.94-.95-6.06.69-7.01,3.64-.95,2.94.69,6.06,3.64,7.01,2.86.87,5.97-.69,6.93-3.64h.09Zm25.11,7.88c1.04-3.29-.78-6.75-4.07-7.71-3.29-1.04-6.75.78-7.71,4.07-1.04,3.2.78,6.67,3.98,7.71s6.67-.78,7.71-4.07h.09Zm25.02,7.97c1.13-3.55-.87-7.36-4.42-8.49-3.55-1.13-7.36.87-8.48,4.42-1.13,3.55.87,7.36,4.42,8.49,3.55,1.04,7.27-.87,8.4-4.42h.09Zm25.11,7.97c1.21-3.9-.95-8.05-4.85-9.26-3.9-1.21-8.05.95-9.26,4.85-1.21,3.9.95,8.05,4.85,9.26s7.97-.95,9.18-4.85h.09Zm-8.4,24.24c1.13-3.55-.87-7.36-4.42-8.49s-7.36.87-8.48,4.42c-1.13,3.55.87,7.36,4.42,8.49,3.55,1.04,7.27-.87,8.4-4.42h.09Zm-8.31,24.24c1.04-3.29-.78-6.75-4.07-7.71-3.29-1.04-6.75.78-7.71,4.07-1.04,3.29.78,6.75,3.98,7.71,3.2.95,6.58-.78,7.62-3.98l.17-.09Zm-8.31,24.24c.95-2.94-.69-6.06-3.64-6.93-2.94-.95-6.06.69-6.93,3.64-.95,2.94.69,6.06,3.64,6.93,2.86.87,5.89-.69,6.84-3.46l.09-.17Zm-8.31,24.24c.87-2.6-.61-5.37-3.2-6.23-2.6-.87-5.37.61-6.23,3.2-.87,2.6.61,5.37,3.2,6.23,2.51.78,5.28-.61,6.15-3.12l.09-.09Zm-8.4,24.24c.69-2.25-.52-4.68-2.77-5.45-2.25-.69-4.68.52-5.45,2.77-.69,2.25.52,4.68,2.77,5.45,2.16.69,4.59-.52,5.37-2.68l.09-.09Zm-8.31,24.24c.61-1.99-.43-4.07-2.42-4.68s-4.07.43-4.68,2.42.43,4.07,2.42,4.68c1.9.61,3.9-.35,4.59-2.16l.09-.26Zm-8.31,24.24c.52-1.65-.35-3.38-1.99-3.9s-3.38.35-3.9,1.99.35,3.38,1.99,3.9c1.56.52,3.2-.26,3.81-1.73l.09-.26Zm-8.31,24.24c.43-1.3-.35-2.68-1.65-3.12s-2.68.35-3.12,1.65.35,2.68,1.65,3.12c1.21.43,2.51-.17,3.03-1.3l.09-.35Zm-8.48,24.59c.35-.95-.26-1.99-1.21-2.34s-1.99.26-2.34,1.21.26,1.99,1.21,2.34c1.04.26,2.08-.26,2.34-1.21Zm-8.31,24.24c.17-.69-.17-1.39-.78-1.56-.69-.17-1.39.17-1.56.78-.17.69.17,1.39.78,1.56.69.26,1.39-.09,1.56-.78Zm-8.31,24.24c.09-.35-.09-.69-.43-.78s-.69.09-.78.43.09.69.43.78c.26.09.69-.09.78-.43ZM124.96,327.34c.09-.26-.09-.61-.35-.69s-.61.09-.69.35.09.61.35.69.61-.09.69-.35Zm24.85,7.88c.17-.52-.17-1.13-.69-1.3s-1.13.17-1.3.69.17,1.13.69,1.3,1.13-.17,1.3-.69Zm24.85,7.88c.26-.87-.17-1.73-1.04-1.99s-1.73.17-1.99,1.04.17,1.73,1.04,1.99c.78.26,1.73-.17,1.99-1.04Zm24.85,7.88c.35-1.13-.26-2.34-1.39-2.68-1.13-.35-2.34.26-2.68,1.39-.35,1.13.26,2.34,1.39,2.68s2.34-.35,2.68-1.39Zm24.85,7.79c.4-1.39-.4-2.85-1.79-3.26-1.36-.39-2.78.36-3.23,1.7-.43,1.39.35,2.86,1.73,3.29,1.3.43,2.86-.26,3.29-1.73Zm24.85,7.88c.52-1.65-.43-3.46-2.08-3.98-1.65-.52-3.46.43-3.98,2.08s.43,3.46,2.08,3.98,3.38-.35,3.98-2.08Zm24.85,7.88c.61-1.99-.43-4.07-2.42-4.68-1.99-.61-4.07.43-4.68,2.42s.43,4.07,2.42,4.68c1.9.61,3.98-.43,4.68-2.42-.09,0,0,0,0,0Zm24.85,7.88c.69-2.25-.52-4.59-2.77-5.28-2.25-.69-4.59.52-5.28,2.77-.69,2.25.52,4.59,2.77,5.28,2.16.69,4.5-.61,5.28-2.77Zm24.85,7.79c.78-2.51-.61-5.19-3.12-5.97-2.51-.78-5.19.61-5.97,3.12-.78,2.51.61,5.19,3.12,5.97,2.42.87,5.11-.52,5.97-3.12q0,.09,0,0Zm24.76,7.88c.87-2.77-.69-5.71-3.46-6.67-2.77-.87-5.71.69-6.67,3.46-.87,2.77.69,5.71,3.46,6.67,2.86.87,5.8-.61,6.67-3.46Zm24.85,7.88c.95-3.03-.69-6.32-3.81-7.27-3.03-.95-6.32.69-7.27,3.81-.95,3.03.69,6.32,3.81,7.27,3.03.95,6.32-.78,7.27-3.81Zm24.85,7.88c1.04-3.38-.78-6.93-4.16-7.97s-6.93.78-7.97,4.16.78,6.93,4.16,7.97,6.93-.78,7.97-4.16Zm-8.14,24.16c.95-3.03-.69-6.32-3.81-7.36s-6.32.69-7.36,3.81c-.95,3.03.69,6.32,3.81,7.36,3.12.95,6.32-.69,7.36-3.81Zm-8.23,24.16c.87-2.77-.69-5.71-3.46-6.67-2.77-.87-5.71.69-6.67,3.46-.87,2.77.69,5.71,3.46,6.67,2.77.95,5.8-.61,6.67-3.46Zm-8.23,24.24c.78-2.51-.61-5.19-3.12-5.97-2.51-.78-5.19.61-5.97,3.12-.78,2.51.61,5.19,3.12,5.97s5.19-.61,5.97-3.12Zm-8.23,24.16c.69-2.25-.52-4.59-2.77-5.28s-4.59.52-5.28,2.77c-.69,2.25.52,4.59,2.77,5.28,2.25.69,4.59-.52,5.28-2.77Zm-8.14,24.16c.61-1.99-.43-4.07-2.42-4.68-1.99-.61-4.07.43-4.68,2.42-.61,1.99.43,4.07,2.42,4.68,1.9.61,3.98-.43,4.68-2.42Zm-8.23,24.24c.52-1.65-.43-3.46-2.08-3.98s-3.46.43-3.98,2.08.43,3.46,2.08,3.98c1.65.52,3.46-.43,3.98-2.08Zm-8.23,24.16c.4-1.39-.4-2.85-1.79-3.26-1.36-.39-2.78.36-3.23,1.7-.4,1.39.4,2.85,1.79,3.26,1.36.39,2.78-.36,3.23-1.7Zm-8.23,24.16c.35-1.13-.26-2.34-1.39-2.68-1.13-.35-2.34.26-2.68,1.39s.26,2.25,1.39,2.68c1.13.35,2.34-.26,2.68-1.39Zm-8.23,24.16c.26-.87-.17-1.73-1.04-1.99s-1.73.17-1.99,1.04.17,1.73,1.04,1.99,1.73-.17,1.99-1.04q0,.09,0,0Zm-8.14,24.24c.17-.52-.09-1.13-.69-1.3-.52-.17-1.13.09-1.3.69-.17.52.09,1.13.69,1.3.52.17,1.13-.17,1.3-.69Zm-8.23,24.16c.09-.26-.09-.61-.35-.69s-.61.09-.69.35.09.61.35.69.61-.09.69-.35ZM93.62,344.74c.09-.26-.09-.52-.26-.52-.26-.09-.52.09-.52.26-.09.26.09.52.26.61s.43-.09.52-.35Zm24.59,7.79c.17-.43-.09-.95-.61-1.13s-.95.09-1.13.61.09.95.61,1.13c.52.09,1.04-.17,1.13-.61Zm24.68,7.79c.26-.69-.17-1.47-.87-1.65-.69-.26-1.47.17-1.65.87-.26.69.17,1.47.87,1.65.69.26,1.39-.17,1.65-.87Zm24.59,7.79c.26-.95-.26-1.9-1.21-2.16s-1.9.26-2.16,1.21c-.26.87.26,1.82,1.13,2.16.95.26,1.99-.26,2.25-1.21h0Zm24.68,7.79c.35-1.13-.26-2.42-1.47-2.77-1.13-.35-2.42.26-2.77,1.47-.35,1.13.26,2.42,1.47,2.77,1.13.35,2.42-.26,2.77-1.47Zm24.59,7.79c.43-1.39-.34-2.86-1.73-3.29-1.39-.43-2.86.34-3.29,1.73s.34,2.86,1.73,3.29h0c1.39.43,2.86-.26,3.29-1.64v-.09Zm24.68,7.79c.52-1.65-.43-3.38-1.99-3.9s-3.38.43-3.9,1.99c-.52,1.65.35,3.38,1.99,3.9s3.38-.35,3.9-1.99Zm24.59,7.79c.61-1.82-.43-3.81-2.34-4.42-1.82-.61-3.81.43-4.42,2.34-.61,1.82.43,3.81,2.25,4.42,1.99.61,3.9-.43,4.5-2.34Zm24.68,7.79c.69-2.08-.52-4.33-2.6-4.94-2.08-.69-4.33.52-4.94,2.6-.69,2.08.52,4.33,2.6,4.94,1.99.69,4.24-.52,4.94-2.6Zm24.59,7.79c.69-2.34-.52-4.76-2.86-5.54-2.34-.69-4.76.52-5.54,2.86-.69,2.34.52,4.76,2.86,5.54s4.85-.52,5.54-2.86Zm24.68,7.79c.78-2.6-.61-5.28-3.12-6.06-2.6-.78-5.28.61-6.06,3.12-.78,2.6.61,5.28,3.12,6.06,2.51.87,5.19-.52,6.06-3.12Zm24.59,7.79c.87-2.77-.69-5.71-3.46-6.67-2.77-.95-5.71.69-6.67,3.46-.87,2.77.69,5.71,3.46,6.58,2.86.95,5.8-.61,6.67-3.38Zm-8.05,24.07c.78-2.51-.61-5.28-3.12-6.06-2.51-.78-5.28.61-6.06,3.12s.61,5.28,3.12,6.06c2.51.87,5.28-.52,6.06-3.12Zm-8.05,24.07c.69-2.34-.52-4.76-2.86-5.54-2.34-.69-4.76.52-5.54,2.86-.69,2.34.52,4.76,2.86,5.54,2.25.78,4.76-.52,5.54-2.86Zm-8.14,24.07c.69-2.08-.52-4.33-2.6-4.94-2.08-.69-4.33.52-4.94,2.6-.69,2.08.52,4.33,2.6,4.94,2.08.69,4.33-.43,4.94-2.6Zm-8.05,24.07c.61-1.82-.43-3.81-2.34-4.42-1.82-.61-3.81.43-4.42,2.34-.61,1.82.43,3.81,2.25,4.42,1.9.61,3.9-.43,4.5-2.34q0,.09,0,0Zm-8.05,24.16c.52-1.65-.43-3.38-1.99-3.9-1.56-.52-3.38.43-3.9,1.99-.52,1.65.35,3.38,1.99,3.9,1.65.52,3.38-.35,3.9-1.99Zm-8.14,24.07c.4-1.39-.4-2.85-1.79-3.26-1.36-.39-2.78.36-3.23,1.7-.4,1.39.4,2.85,1.79,3.26,1.36.39,2.78-.36,3.23-1.7Zm-8.05,24.07c.35-1.13-.26-2.42-1.47-2.77-1.13-.35-2.42.26-2.77,1.47-.35,1.13.26,2.42,1.47,2.77,1.13.35,2.42-.35,2.77-1.47Zm-8.05,24.07c.26-.95-.26-1.9-1.13-2.16s-1.9.26-2.16,1.13c-.26.87.26,1.82,1.13,2.16s1.82-.17,2.16-1.13c-.09.09,0,0,0,0Zm-8.14,24.07c.26-.69-.17-1.47-.87-1.65s-1.47.17-1.65.87c-.26.69.17,1.47.87,1.65.69.26,1.47-.17,1.65-.87Zm-8.05,24.07c.17-.43-.17-.95-.61-1.04s-.95.17-1.04.61.09.95.52,1.04.95-.09,1.13-.61h0Zm-8.05,24.07c.09-.26-.09-.52-.26-.52-.26-.09-.52.09-.52.26-.09.26.09.52.26.52.17.09.43,0,.52-.26ZM62.27,362.14c.09-.17-.09-.35-.26-.43s-.35.09-.43.26,0,.35.26.43c.17,0,.43-.09.43-.26Zm24.42,7.71c.09-.35-.09-.78-.43-.87s-.78.09-.87.43.09.78.43.87c.35.17.78,0,.87-.43Zm24.42,7.71c.17-.52-.17-1.13-.69-1.3s-1.13.17-1.3.69.17,1.13.69,1.3,1.13-.09,1.3-.69Zm24.42,7.79c.26-.78-.17-1.56-.87-1.82-.78-.26-1.56.17-1.82.87s.17,1.56.87,1.82h.09c.69.26,1.47-.17,1.73-.87Zm24.42,7.71c.26-.95-.26-1.9-1.21-2.16s-1.9.26-2.16,1.21c-.26.87.26,1.82,1.13,2.16.95.26,1.9-.26,2.25-1.21h0Zm24.42,7.71c.35-1.13-.26-2.34-1.39-2.68s-2.34.26-2.68,1.39.26,2.25,1.39,2.68c1.13.35,2.34-.26,2.68-1.39Zm24.42,7.71c.43-1.3-.35-2.68-1.65-3.12s-2.68.35-3.12,1.65c-.43,1.3.35,2.68,1.65,3.12,1.3.35,2.68-.35,3.12-1.65Zm24.42,7.71c.43-1.47-.35-3.03-1.82-3.55-1.47-.43-3.03.35-3.55,1.82-.43,1.47.35,3.03,1.82,3.55s3.03-.26,3.55-1.82Zm24.42,7.79c.52-1.65-.43-3.46-2.08-3.98s-3.46.43-3.98,2.08c-.52,1.65.43,3.46,2.08,3.98s3.46-.43,3.98-2.08Zm24.42,7.71c.61-1.82-.43-3.81-2.25-4.42-1.82-.61-3.81.43-4.42,2.25-.61,1.82.43,3.81,2.25,4.42,1.82.61,3.81-.43,4.42-2.25Zm24.42,7.71c.61-2.08-.52-4.24-2.51-4.85-2.08-.61-4.24.52-4.85,2.51-.61,2.08.52,4.24,2.51,4.85,1.99.69,4.16-.43,4.85-2.51Zm24.42,7.71c.69-2.25-.52-4.59-2.77-5.28-2.25-.69-4.59.52-5.28,2.77s.52,4.59,2.77,5.28c2.16.69,4.59-.52,5.28-2.77Zm-7.97,23.98c.61-2.08-.52-4.24-2.51-4.85-1.99-.61-4.24.52-4.85,2.51-.61,1.99.52,4.24,2.51,4.85,1.99.69,4.16-.43,4.85-2.51Zm-7.97,23.98c.61-1.82-.43-3.81-2.34-4.42-1.82-.61-3.81.43-4.42,2.34-.61,1.9.43,3.81,2.34,4.42,1.9.52,3.81-.43,4.42-2.34Zm-7.97,23.98c.52-1.65-.43-3.46-2.08-3.98-1.65-.52-3.46.43-3.98,2.08s.43,3.46,2.08,3.98c1.73.52,3.46-.43,3.98-2.08Zm-7.88,23.98c.43-1.47-.35-3.03-1.82-3.55-1.47-.43-3.03.35-3.55,1.82-.43,1.47.35,3.03,1.82,3.55,1.39.52,3.03-.35,3.55-1.82-.09,0,0,0,0,0Zm-7.97,23.98c.43-1.3-.35-2.68-1.65-3.12s-2.68.35-3.12,1.65c-.43,1.3.35,2.68,1.56,3.12,1.39.35,2.77-.35,3.2-1.65Zm-7.97,23.9c.35-1.13-.26-2.34-1.39-2.68-1.13-.35-2.34.26-2.68,1.39s.26,2.25,1.39,2.68c1.13.35,2.34-.17,2.68-1.39Zm-7.97,24.07c.26-.95-.26-1.9-1.21-2.16s-1.9.26-2.16,1.21c-.26.87.26,1.82,1.13,2.16.95.26,1.9-.26,2.25-1.21Zm-7.97,23.98c.26-.78-.17-1.56-.95-1.73-.78-.26-1.56.17-1.73.95-.26.78.17,1.56.95,1.73.69.17,1.47-.26,1.73-.95Zm-7.97,23.98c.17-.52-.17-1.13-.69-1.3s-1.13.17-1.3.69.17,1.13.69,1.3,1.13-.17,1.3-.69Zm-7.97,23.9c.09-.35-.09-.78-.43-.87s-.78.09-.87.43.09.78.43.87c.43.09.78-.09.87-.43Zm-7.88,23.98c.09-.17-.09-.35-.26-.43s-.35.09-.43.26,0,.35.26.43c.09,0,.35-.09.43-.26Z" style="fill:url(#m); isolation:isolate; opacity:.2; stroke-width:0px;"/><path d="m5.55,1260c442.22-72.07,695.59-761.32,1225.41-424.05" style="fill:none; opacity:.4; stroke:#006391; stroke-miterlimit:10;"/><g id="n"><path d="m1090.98,325.29h1030.48v540.14c0,15.11-12.25,27.35-27.35,27.35h-975.77c-15.11,0-27.35-12.25-27.35-27.35V325.29h0Z" style="fill:#fff; stroke-width:0px;"/><rect x="1145.97" y="426.15" width="43.83" height="447.47" style="fill:#f3f3f3; stroke-width:0px;"/><rect x="1409.29" y="426.15" width="43.91" height="447.47" style="fill:#f3f3f3; stroke-width:0px;"/><rect x="1453.2" y="426.15" width="43.91" height="447.47" style="fill:#f3f3f3; stroke-width:0px;"/><rect x="1716.26" y="426.15" width="43.25" height="447.47" style="fill:#f3f3f3; stroke-width:0px;"/><rect x="1760.09" y="426.15" width="43.83" height="447.47" style="fill:#f3f3f3; stroke-width:0px;"/><rect x="1321.5" y="426.15" width="43.91" height="46.16" style="fill:#5488bd; stroke-width:0px;"/><g style="isolation:isolate;"><text transform="translate(1164.54 448.13)" style="fill:#b0b0b0; font-family:Lato-Bold, Lato; font-size:11.54px; font-weight:700; isolation:isolate; letter-spacing:.14em;"><tspan x="0" y="0">1</tspan></text><text transform="translate(1162.63 457.12)" style="fill:#b0b0b0; font-family:Lato-Bold, Lato; font-size:7.5px; font-weight:700; isolation:isolate; letter-spacing:.14em;"><tspan x="0" y="0">SU</tspan></text></g><g style="isolation:isolate;"><text transform="translate(1208.73 448.13)" style="fill:#b0b0b0; font-family:Lato-Bold, Lato; font-size:11.54px; font-weight:700; isolation:isolate; letter-spacing:.14em;"><tspan x="0" y="0">2</tspan></text><text transform="translate(1205.06 457.12)" style="fill:#b0b0b0; font-family:Lato-Bold, Lato; font-size:7.5px; font-weight:700; isolation:isolate; letter-spacing:.14em;"><tspan x="0" y="0">MO</tspan></text></g><g style="isolation:isolate;"><text transform="translate(1252.48 448.13)" style="fill:#b0b0b0; font-family:Lato-Bold, Lato; font-size:11.54px; font-weight:700; isolation:isolate; letter-spacing:.14em;"><tspan x="0" y="0">3</tspan></text><text transform="translate(1250.34 457.12)" style="fill:#b0b0b0; font-family:Lato-Bold, Lato; font-size:7.5px; font-weight:700; isolation:isolate; letter-spacing:.14em;"><tspan x="0" y="0">TU</tspan></text></g><g style="isolation:isolate;"><text transform="translate(1296.3 448.13)" style="fill:#b0b0b0; font-family:Lato-Bold, Lato; font-size:11.54px; font-weight:700; isolation:isolate; letter-spacing:.14em;"><tspan x="0" y="0">4</tspan></text><text transform="translate(1293.05 457.12)" style="fill:#b0b0b0; font-family:Lato-Bold, Lato; font-size:7.5px; font-weight:700; isolation:isolate; letter-spacing:.14em;"><tspan x="0" y="0">WE</tspan></text></g><g style="isolation:isolate;"><text transform="translate(1383.96 448.13)" style="fill:#b0b0b0; font-family:Lato-Bold, Lato; font-size:11.54px; font-weight:700; isolation:isolate; letter-spacing:.14em;"><tspan x="0" y="0">6</tspan></text><text transform="translate(1382.22 457.12)" style="fill:#b0b0b0; font-family:Lato-Bold, Lato; font-size:7.5px; font-weight:700; isolation:isolate; letter-spacing:.14em;"><tspan x="0" y="0">FR</tspan></text></g><g style="isolation:isolate;"><text transform="translate(1427.78 448.13)" style="fill:#b0b0b0; font-family:Lato-Bold, Lato; font-size:11.54px; font-weight:700; isolation:isolate; letter-spacing:.14em;"><tspan x="0" y="0">7</tspan></text><text transform="translate(1425.93 457.12)" style="fill:#b0b0b0; font-family:Lato-Bold, Lato; font-size:7.5px; font-weight:700; isolation:isolate; letter-spacing:.14em;"><tspan x="0" y="0">SA</tspan></text></g><g style="isolation:isolate;"><text transform="translate(1471.59 448.13)" style="fill:#b0b0b0; font-family:Lato-Bold, Lato; font-size:11.54px; font-weight:700; isolation:isolate; letter-spacing:.14em;"><tspan x="0" y="0">8</tspan></text><text transform="translate(1469.68 457.12)" style="fill:#b0b0b0; font-family:Lato-Bold, Lato; font-size:7.5px; font-weight:700; isolation:isolate; letter-spacing:.14em;"><tspan x="0" y="0">SU</tspan></text></g><g style="isolation:isolate;"><text transform="translate(1515.41 448.13)" style="fill:#b0b0b0; font-family:Lato-Bold, Lato; font-size:11.54px; font-weight:700; isolation:isolate; letter-spacing:.14em;"><tspan x="0" y="0">9</tspan></text><text transform="translate(1511.75 457.12)" style="fill:#b0b0b0; font-family:Lato-Bold, Lato; font-size:7.5px; font-weight:700; isolation:isolate; letter-spacing:.14em;"><tspan x="0" y="0">MO</tspan></text></g><g style="isolation:isolate;"><text transform="translate(1555.09 448.13)" style="fill:#b0b0b0; font-family:Lato-Bold, Lato; font-size:11.54px; font-weight:700; isolation:isolate; letter-spacing:.14em;"><tspan x="0" y="0">10</tspan></text><text transform="translate(1557.1 457.12)" style="fill:#b0b0b0; font-family:Lato-Bold, Lato; font-size:7.5px; font-weight:700; isolation:isolate; letter-spacing:.14em;"><tspan x="0" y="0">TU</tspan></text></g><g style="isolation:isolate;"><text transform="translate(1598.91 448.13)" style="fill:#b0b0b0; font-family:Lato-Bold, Lato; font-size:11.54px; font-weight:700; isolation:isolate; letter-spacing:.14em;"><tspan x="0" y="0">11</tspan></text><text transform="translate(1599.82 457.12)" style="fill:#b0b0b0; font-family:Lato-Bold, Lato; font-size:7.5px; font-weight:700; isolation:isolate; letter-spacing:.14em;"><tspan x="0" y="0">WE</tspan></text></g><g style="isolation:isolate;"><text transform="translate(1642.74 448.13)" style="fill:#b0b0b0; font-family:Lato-Bold, Lato; font-size:11.54px; font-weight:700; isolation:isolate; letter-spacing:.14em;"><tspan x="0" y="0">12</tspan></text><text transform="translate(1644.66 457.12)" style="fill:#b0b0b0; font-family:Lato-Bold, Lato; font-size:7.5px; font-weight:700; isolation:isolate; letter-spacing:.14em;"><tspan x="0" y="0">TH</tspan></text></g><g style="isolation:isolate;"><text transform="translate(1686.57 448.13)" style="fill:#b0b0b0; font-family:Lato-Bold, Lato; font-size:11.54px; font-weight:700; isolation:isolate; letter-spacing:.14em;"><tspan x="0" y="0">13</tspan></text><text transform="translate(1688.98 457.12)" style="fill:#b0b0b0; font-family:Lato-Bold, Lato; font-size:7.5px; font-weight:700; isolation:isolate; letter-spacing:.14em;"><tspan x="0" y="0">FR</tspan></text></g><g style="isolation:isolate;"><text transform="translate(1730.39 448.13)" style="fill:#b0b0b0; font-family:Lato-Bold, Lato; font-size:11.54px; font-weight:700; isolation:isolate; letter-spacing:.14em;"><tspan x="0" y="0">14</tspan></text><text transform="translate(1732.69 457.12)" style="fill:#b0b0b0; font-family:Lato-Bold, Lato; font-size:7.5px; font-weight:700; isolation:isolate; letter-spacing:.14em;"><tspan x="0" y="0">SA</tspan></text></g><g style="isolation:isolate;"><text transform="translate(1774.17 448.13)" style="fill:#b0b0b0; font-family:Lato-Bold, Lato; font-size:11.54px; font-weight:700; isolation:isolate; letter-spacing:.14em;"><tspan x="0" y="0">15</tspan></text><text transform="translate(1776.4 457.12)" style="fill:#b0b0b0; font-family:Lato-Bold, Lato; font-size:7.5px; font-weight:700; isolation:isolate; letter-spacing:.14em;"><tspan x="0" y="0">SU</tspan></text></g><g style="isolation:isolate;"><text transform="translate(1817.98 448.13)" style="fill:#b0b0b0; font-family:Lato-Bold, Lato; font-size:11.54px; font-weight:700; isolation:isolate; letter-spacing:.14em;"><tspan x="0" y="0">16</tspan></text><text transform="translate(1818.46 457.12)" style="fill:#b0b0b0; font-family:Lato-Bold, Lato; font-size:7.5px; font-weight:700; isolation:isolate; letter-spacing:.14em;"><tspan x="0" y="0">MO</tspan></text></g><g style="isolation:isolate;"><text transform="translate(1861.8 448.13)" style="fill:#b0b0b0; font-family:Lato-Bold, Lato; font-size:11.54px; font-weight:700; isolation:isolate; letter-spacing:.14em;"><tspan x="0" y="0">17</tspan></text><text transform="translate(1863.81 457.12)" style="fill:#b0b0b0; font-family:Lato-Bold, Lato; font-size:7.5px; font-weight:700; isolation:isolate; letter-spacing:.14em;"><tspan x="0" y="0">TU</tspan></text></g><g style="isolation:isolate;"><text transform="translate(1905.63 448.13)" style="fill:#b0b0b0; font-family:Lato-Bold, Lato; font-size:11.54px; font-weight:700; isolation:isolate; letter-spacing:.14em;"><tspan x="0" y="0">18</tspan></text><text transform="translate(1906.53 457.12)" style="fill:#b0b0b0; font-family:Lato-Bold, Lato; font-size:7.5px; font-weight:700; isolation:isolate; letter-spacing:.14em;"><tspan x="0" y="0">WE</tspan></text></g><g style="isolation:isolate;"><text transform="translate(1340.13 448.13)" style="fill:#fff; font-family:Lato-Bold, Lato; font-size:11.54px; font-weight:700; isolation:isolate; letter-spacing:.14em;"><tspan x="0" y="0">5</tspan></text><text transform="translate(1337.9 457.12)" style="fill:#fff; font-family:Lato-Bold, Lato; font-size:7.5px; font-weight:700; isolation:isolate; letter-spacing:.14em;"><tspan x="0" y="0">TH</tspan></text></g><text transform="translate(1292.38 411.7)" style="fill:#b0b0b0; font-family:Lato-Bold, Lato; font-size:11.07px; font-weight:700; isolation:isolate; letter-spacing:.14em;"><tspan x="0" y="0">36</tspan></text><text transform="translate(1599.65 411.7)" style="fill:#b0b0b0; font-family:Lato-Bold, Lato; font-size:11.07px; font-weight:700; isolation:isolate; letter-spacing:.14em;"><tspan x="0" y="0">37</tspan></text><text transform="translate(1906.95 411.7)" style="fill:#b0b0b0; font-family:Lato-Bold, Lato; font-size:11.07px; font-weight:700; isolation:isolate; letter-spacing:.14em;"><tspan x="0" y="0">38</tspan></text><text transform="translate(1569.54 382.02)" style="fill:#b0b0b0; font-family:Lato-Bold, Lato; font-size:11.07px; font-weight:700; isolation:isolate; letter-spacing:.14em;"><tspan x="0" y="0">SEPTEMBER</tspan></text><line x1="1190.09" y1="426.5" x2="1190.09" y2="865.19" style="fill:none; stroke:#e4e4e4; stroke-miterlimit:10;"/><line x1="1233.91" y1="426.5" x2="1233.91" y2="865.19" style="fill:none; stroke:#e4e4e4; stroke-miterlimit:10;"/><line x1="1277.74" y1="426.5" x2="1277.74" y2="865.19" style="fill:none; stroke:#e4e4e4; stroke-miterlimit:10;"/><line x1="1321.56" y1="426.5" x2="1321.56" y2="865.19" style="fill:none; stroke:#e4e4e4; stroke-miterlimit:10;"/><line x1="1365.39" y1="426.5" x2="1365.39" y2="865.19" style="fill:none; stroke:#e4e4e4; stroke-miterlimit:10;"/><line x1="1409.21" y1="426.5" x2="1409.21" y2="865.19" style="fill:none; stroke:#e4e4e4; stroke-miterlimit:10;"/><line x1="1453.02" y1="392.04" x2="1453.02" y2="865.19" style="fill:none; stroke:#e4e4e4; stroke-miterlimit:10;"/><line x1="1496.85" y1="426.5" x2="1496.85" y2="865.19" style="fill:none; stroke:#e4e4e4; stroke-miterlimit:10;"/><line x1="1540.67" y1="426.5" x2="1540.67" y2="865.19" style="fill:none; stroke:#e4e4e4; stroke-miterlimit:10;"/><line x1="1584.5" y1="426.5" x2="1584.5" y2="865.19" style="fill:none; stroke:#e4e4e4; stroke-miterlimit:10;"/><line x1="1628.32" y1="426.5" x2="1628.32" y2="865.19" style="fill:none; stroke:#e4e4e4; stroke-miterlimit:10;"/><line x1="1672.15" y1="426.5" x2="1672.15" y2="865.19" style="fill:none; stroke:#e4e4e4; stroke-miterlimit:10;"/><line x1="1715.98" y1="426.5" x2="1715.98" y2="865.19" style="fill:none; stroke:#e4e4e4; stroke-miterlimit:10;"/><line x1="1759.8" y1="392.04" x2="1759.8" y2="865.19" style="fill:none; stroke:#e4e4e4; stroke-miterlimit:10;"/><line x1="1803.63" y1="426.5" x2="1803.63" y2="865.19" style="fill:none; stroke:#e4e4e4; stroke-miterlimit:10;"/><line x1="1847.44" y1="426.5" x2="1847.44" y2="865.19" style="fill:none; stroke:#e4e4e4; stroke-miterlimit:10;"/><line x1="1891.26" y1="426.5" x2="1891.26" y2="865.19" style="fill:none; stroke:#e4e4e4; stroke-miterlimit:10;"/><line x1="1233.91" y1="426.5" x2="1233.91" y2="865.19" style="fill:none; stroke:#e4e4e4; stroke-miterlimit:10;"/><line x1="2066.56" y1="472.31" x2="1145.68" y2="472.31" style="fill:none; stroke:#e4e4e4; stroke-miterlimit:10;"/><line x1="2066.56" y1="426.15" x2="1145.68" y2="426.15" style="fill:none; stroke:#e4e4e4; stroke-miterlimit:10;"/><rect x="1145.23" y="752.15" width="921.85" height="125.7" style="fill:url(#o); stroke-width:0px;"/><text transform="translate(1246.49 546.89)" style="fill:#2b3a4a; font-family:Lato-Regular, Lato; font-size:12.03px; isolation:isolate;"><tspan x="0" y="0">Kick-off meeting orga team</tspan></text><g style="isolation:isolate;"><text transform="translate(1547.64 727.44)" style="fill:#2b3a4a; font-family:Lato-Regular, Lato; font-size:12.03px; isolation:isolate;"><tspan x="0" y="0">Online ad</tspan></text><text transform="translate(1598.24 727.44)" style="fill:#2b3a4a; font-family:Lato-Regular, Lato; font-size:12.03px; isolation:isolate; letter-spacing:0em;"><tspan x="0" y="0">v</tspan></text><text transform="translate(1604.26 727.44)" style="fill:#2b3a4a; font-family:Lato-Regular, Lato; font-size:12.03px; isolation:isolate;"><tspan x="0" y="0">ertising</tspan></text></g><polyline points="1191.65 525.59 1191.65 513.57 1851.62 513.57 1851.62 525.59" style="fill:none; stroke:#000; stroke-linecap:square; stroke-miterlimit:10; stroke-width:.5px;"/><polyline points="1321.82 706.67 1321.82 694.65 1540.67 694.65 1540.67 706.67" style="fill:none; stroke:#000; stroke-linecap:square; stroke-miterlimit:10; stroke-width:.5px;"/><polyline points="1851.62 506.4 1869.86 506.4 1869.86 784.18" style="fill:none; stroke:#5ba0e1; stroke-linecap:square; stroke-miterlimit:10; stroke-width:.5px;"/><polyline points="1222.81 542.48 1239.09 542.48 1239.09 574.13" style="fill:none; stroke:#5ba0e1; stroke-linecap:square; stroke-miterlimit:10; stroke-width:.5px;"/><polyline points="1278.03 578.25 1283.56 578.25 1283.56 645.24" style="fill:none; stroke:#5ba0e1; stroke-linecap:square; stroke-miterlimit:10; stroke-width:.5px;"/><rect x="1191.47" y="499.42" width="660.16" height="13.93" style="fill:#ffb021; stroke-width:0px;"/><rect x="1234.2" y="571.62" width="43.83" height="13.93" style="fill:#3f67a0; stroke-width:0px;"/><rect x="1277.74" y="607.74" width="87.65" height="13.93" style="fill:#3f67a0; stroke-width:0px;"/><rect x="1277.74" y="643.84" width="131.12" height="13.93" style="fill:#3f67a0; stroke-width:0px;"/><rect x="1321.56" y="679.95" width="350.59" height="13.93" style="fill:#ffb021; stroke-width:0px;"/><rect x="1321.82" y="716.05" width="218.85" height="13.93" style="fill:#3f67a0; stroke-width:0px;"/><rect x="1448.53" y="752.15" width="398.92" height="13.93" style="fill:#3f67a0; stroke-width:0px;"/><rect x="1201.1" y="533.73" width="17.5" height="17.5" transform="translate(-29.23 1014.39) rotate(-45)" style="fill:#79db44; stroke-width:0px;"/><rect x="1861.11" y="786.16" width="17.5" height="17.5" transform="translate(-14.42 1555.02) rotate(-45)" style="fill:#79db44; stroke-width:0px;"/><text transform="translate(1869.86 510.77)" style="fill:#2b3a4a; font-family:Lato-Regular, Lato; font-size:12.03px; isolation:isolate;"><tspan x="0" y="0">Organize a conference</tspan></text><text transform="translate(1290.22 583)" style="fill:#2b3a4a; font-family:Lato-Regular, Lato; font-size:12.03px; isolation:isolate;"><tspan x="0" y="0">Find date and location</tspan></text><text transform="translate(1374.38 619.12)" style="fill:#2b3a4a; font-family:Lato-Regular, Lato; font-size:12.03px; isolation:isolate;"><tspan x="0" y="0">Prepare agenda</tspan></text><g style="isolation:isolate;"><text transform="translate(1417.74 655.22)" style="fill:#2b3a4a; font-family:Lato-Regular, Lato; font-size:12.03px; isolation:isolate;"><tspan x="0" y="0">Send out conference i</tspan></text><text transform="translate(1530.91 655.22)" style="fill:#2b3a4a; font-family:Lato-Regular, Lato; font-size:12.03px; isolation:isolate; letter-spacing:-.02em;"><tspan x="0" y="0">n</tspan></text><text transform="translate(1537.41 655.22)" style="fill:#2b3a4a; font-family:Lato-Regular, Lato; font-size:12.03px; isolation:isolate;"><tspan x="0" y="0">vitation</tspan></text></g><g style="isolation:isolate;"><text transform="translate(1681.74 691.34)" style="fill:#2b3a4a; font-family:Lato-Regular, Lato; font-size:12.03px; isolation:isolate;"><tspan x="0" y="0">Conference mar</tspan></text><text transform="translate(1766.66 691.34)" style="fill:#2b3a4a; font-family:Lato-Regular, Lato; font-size:12.03px; isolation:isolate; letter-spacing:-.03em;"><tspan x="0" y="0">k</tspan></text><text transform="translate(1772.61 691.34)" style="fill:#2b3a4a; font-family:Lato-Regular, Lato; font-size:12.03px; isolation:isolate;"><tspan x="0" y="0">eting</tspan></text></g><text transform="translate(1856.4 763.56)" style="fill:#2b3a4a; font-family:Lato-Regular, Lato; font-size:12.03px; isolation:isolate;"><tspan x="0" y="0">Set up conference technology</tspan></text><text transform="translate(1891.89 799.36)" style="fill:#2b3a4a; font-family:Lato-Regular, Lato; font-size:12.03px; isolation:isolate;"><tspan x="0" y="0">Open source conference</tspan></text><path d="m1117.33,266.11h977.74c14.55,0,26.34,11.79,26.34,26.34v32.84h-1030.43v-32.84c0-14.55,11.79-26.34,26.34-26.34h.02Z" style="fill:#0070ba; stroke-width:0px;"/><g id="p"><path d="m1611.25,285.16h-1.98c-1.08,0-1.95.86-1.96,1.93,0,0,0,.01,0,.02v6h3.94c1.1-.02,1.98-.91,1.98-2.01v-3.94c.03-1.07-.82-1.97-1.9-1.99-.03,0-.05,0-.08,0Z" style="fill:none; stroke-width:0px;"/><path d="m1604.37,301.35h0c0,.82.66,1.48,1.48,1.48s1.48-.66,1.48-1.48h0v-3.56h-2.96v3.56Z" style="fill:#fff; stroke-width:0px;"/><path d="m1611.25,282.2h-1.98c-2.67-.05-4.87,2.06-4.92,4.73,0,.03,0,.07,0,.1v6.08h-8.69c-2.66-.06-4.88,2.05-4.94,4.71,0,.04,0,.08,0,.11v3.94c0,2.74,2.2,4.96,4.94,4.97h1.96c2.74,0,4.95-2.23,4.94-4.97h0v-4.12h-3.02v4.12c0,1.1-.88,1.99-1.98,2.01h-1.96c-1.1-.02-1.98-.91-1.98-2.01v-3.94c0-1.08.87-1.95,1.95-1.95.01,0,.02,0,.03,0h15.59c2.74,0,4.95-2.23,4.94-4.97h0v-3.94c.03-2.67-2.11-4.85-4.78-4.87-.03,0-.06,0-.1,0Zm1.98,8.85c0,1.1-.88,1.99-1.98,2.01h-3.94v-5.95c0-1.08.87-1.95,1.95-1.95,0,0,.01,0,.02,0h1.98c1.07-.02,1.96.84,1.98,1.91,0,.01,0,.02,0,.03v3.94Z" style="fill:#fff; stroke-width:0px;"/></g><text transform="translate(1145.23 302.83)" style="fill:#fff; font-family:Lato-Bold, Lato; font-size:17.17px; font-weight:700; isolation:isolate;"><tspan x="0" y="0">Organize an Open Source Conference</tspan></text><path d="m1449.27,301.9l3.65-5.49c.14-.21.08-.5-.13-.65-.08-.05-.16-.08-.25-.08h-7.55c-.26,0-.47.21-.46.47,0,.09.03.18.08.25l3.64,5.49c.2.28.59.35.87.16.06-.04.11-.1.16-.16Z" style="fill:#fff; stroke-width:0px;"/></g></g></svg>